<mxfile host="app.diagrams.net" agent="Mozilla/5.0 (Windows NT 10.0; Win64; x64; rv:131.0) Gecko/20100101 Firefox/131.0" version="24.7.17">
  <diagram name="Страница — 1" id="DLRhA7j28XDQKagzUnST">
    <mxGraphModel dx="838" dy="919" grid="1" gridSize="10" guides="1" tooltips="1" connect="1" arrows="1" fold="1" page="1" pageScale="1" pageWidth="827" pageHeight="1169" math="0" shadow="0">
      <root>
        <mxCell id="0" />
        <mxCell id="1" parent="0" />
        <mxCell id="1CZp4nAY6ycJ82pHpyfN-1" value="студент" style="rounded=0;whiteSpace=wrap;html=1;" vertex="1" parent="1">
          <mxGeometry x="120" y="170" width="120" height="60" as="geometry" />
        </mxCell>
        <mxCell id="1CZp4nAY6ycJ82pHpyfN-2" value="глава клуба" style="rounded=0;whiteSpace=wrap;html=1;" vertex="1" parent="1">
          <mxGeometry x="620" y="170" width="120" height="60" as="geometry" />
        </mxCell>
        <mxCell id="1CZp4nAY6ycJ82pHpyfN-3" value="клуб" style="rounded=0;whiteSpace=wrap;html=1;" vertex="1" parent="1">
          <mxGeometry x="354" y="330" width="120" height="60" as="geometry" />
        </mxCell>
        <mxCell id="1CZp4nAY6ycJ82pHpyfN-5" value="Вид занятий" style="rounded=0;whiteSpace=wrap;html=1;" vertex="1" parent="1">
          <mxGeometry x="210" y="510" width="120" height="60" as="geometry" />
        </mxCell>
        <mxCell id="1CZp4nAY6ycJ82pHpyfN-9" value="связь" style="shape=rhombus;perimeter=rhombusPerimeter;whiteSpace=wrap;html=1;align=center;" vertex="1" parent="1">
          <mxGeometry x="354" y="510" width="120" height="60" as="geometry" />
        </mxCell>
        <mxCell id="1CZp4nAY6ycJ82pHpyfN-10" value="" style="endArrow=none;html=1;rounded=0;exitX=0.5;exitY=1;exitDx=0;exitDy=0;entryX=0.5;entryY=0;entryDx=0;entryDy=0;" edge="1" parent="1" source="1CZp4nAY6ycJ82pHpyfN-3" target="1CZp4nAY6ycJ82pHpyfN-9">
          <mxGeometry relative="1" as="geometry">
            <mxPoint x="320" y="460" as="sourcePoint" />
            <mxPoint x="480" y="460" as="targetPoint" />
          </mxGeometry>
        </mxCell>
        <mxCell id="1CZp4nAY6ycJ82pHpyfN-11" value="" style="endArrow=none;html=1;rounded=0;exitX=0;exitY=0.5;exitDx=0;exitDy=0;entryX=1;entryY=0.5;entryDx=0;entryDy=0;" edge="1" parent="1" source="1CZp4nAY6ycJ82pHpyfN-9" target="1CZp4nAY6ycJ82pHpyfN-5">
          <mxGeometry relative="1" as="geometry">
            <mxPoint x="440" y="570" as="sourcePoint" />
            <mxPoint x="600" y="570" as="targetPoint" />
          </mxGeometry>
        </mxCell>
        <mxCell id="1CZp4nAY6ycJ82pHpyfN-15" value="" style="endArrow=none;html=1;rounded=0;exitX=1;exitY=0.5;exitDx=0;exitDy=0;entryX=0;entryY=0.5;entryDx=0;entryDy=0;" edge="1" parent="1" target="1CZp4nAY6ycJ82pHpyfN-39">
          <mxGeometry relative="1" as="geometry">
            <mxPoint x="472" y="539.5" as="sourcePoint" />
            <mxPoint x="510" y="559.9999999999998" as="targetPoint" />
          </mxGeometry>
        </mxCell>
        <mxCell id="1CZp4nAY6ycJ82pHpyfN-16" value="" style="endArrow=none;html=1;rounded=0;exitX=0;exitY=0.5;exitDx=0;exitDy=0;entryX=1;entryY=0.5;entryDx=0;entryDy=0;" edge="1" parent="1" source="1CZp4nAY6ycJ82pHpyfN-38" target="1CZp4nAY6ycJ82pHpyfN-9">
          <mxGeometry relative="1" as="geometry">
            <mxPoint x="510" y="519.9999999999998" as="sourcePoint" />
            <mxPoint x="470" y="370" as="targetPoint" />
          </mxGeometry>
        </mxCell>
        <mxCell id="1CZp4nAY6ycJ82pHpyfN-17" value="" style="endArrow=none;html=1;rounded=0;exitX=1;exitY=0.5;exitDx=0;exitDy=0;entryX=0;entryY=0.5;entryDx=0;entryDy=0;" edge="1" parent="1" source="1CZp4nAY6ycJ82pHpyfN-3" target="1CZp4nAY6ycJ82pHpyfN-40">
          <mxGeometry relative="1" as="geometry">
            <mxPoint x="500" y="350" as="sourcePoint" />
            <mxPoint x="550" y="330" as="targetPoint" />
          </mxGeometry>
        </mxCell>
        <mxCell id="1CZp4nAY6ycJ82pHpyfN-18" value="" style="endArrow=none;html=1;rounded=0;exitX=1;exitY=0.5;exitDx=0;exitDy=0;entryX=0;entryY=0.5;entryDx=0;entryDy=0;" edge="1" parent="1" source="1CZp4nAY6ycJ82pHpyfN-3" target="1CZp4nAY6ycJ82pHpyfN-41">
          <mxGeometry relative="1" as="geometry">
            <mxPoint x="484" y="370" as="sourcePoint" />
            <mxPoint x="550" y="384.9999999999998" as="targetPoint" />
          </mxGeometry>
        </mxCell>
        <mxCell id="1CZp4nAY6ycJ82pHpyfN-21" value="посещение" style="shape=rhombus;perimeter=rhombusPerimeter;whiteSpace=wrap;html=1;align=center;" vertex="1" parent="1">
          <mxGeometry x="350" y="170" width="120" height="60" as="geometry" />
        </mxCell>
        <mxCell id="1CZp4nAY6ycJ82pHpyfN-22" value="" style="endArrow=none;html=1;rounded=0;exitX=1;exitY=0.5;exitDx=0;exitDy=0;entryX=0;entryY=0.5;entryDx=0;entryDy=0;" edge="1" parent="1" source="1CZp4nAY6ycJ82pHpyfN-1" target="1CZp4nAY6ycJ82pHpyfN-21">
          <mxGeometry relative="1" as="geometry">
            <mxPoint x="270" y="240" as="sourcePoint" />
            <mxPoint x="430" y="240" as="targetPoint" />
          </mxGeometry>
        </mxCell>
        <mxCell id="1CZp4nAY6ycJ82pHpyfN-23" value="" style="endArrow=none;html=1;rounded=0;exitX=1;exitY=0.5;exitDx=0;exitDy=0;entryX=0;entryY=0.5;entryDx=0;entryDy=0;" edge="1" parent="1" target="1CZp4nAY6ycJ82pHpyfN-2">
          <mxGeometry relative="1" as="geometry">
            <mxPoint x="470" y="199.5" as="sourcePoint" />
            <mxPoint x="580" y="199.5" as="targetPoint" />
          </mxGeometry>
        </mxCell>
        <mxCell id="1CZp4nAY6ycJ82pHpyfN-24" value="" style="endArrow=none;html=1;rounded=0;exitX=0.5;exitY=1;exitDx=0;exitDy=0;entryX=0.5;entryY=0;entryDx=0;entryDy=0;" edge="1" parent="1" source="1CZp4nAY6ycJ82pHpyfN-21" target="1CZp4nAY6ycJ82pHpyfN-3">
          <mxGeometry relative="1" as="geometry">
            <mxPoint x="390" y="270" as="sourcePoint" />
            <mxPoint x="550" y="270" as="targetPoint" />
          </mxGeometry>
        </mxCell>
        <mxCell id="1CZp4nAY6ycJ82pHpyfN-26" value="выдача задач" style="shape=rhombus;perimeter=rhombusPerimeter;whiteSpace=wrap;html=1;align=center;" vertex="1" parent="1">
          <mxGeometry x="350" y="50" width="120" height="60" as="geometry" />
        </mxCell>
        <mxCell id="1CZp4nAY6ycJ82pHpyfN-27" value="" style="endArrow=none;html=1;rounded=0;entryX=0;entryY=0.5;entryDx=0;entryDy=0;" edge="1" parent="1" target="1CZp4nAY6ycJ82pHpyfN-26">
          <mxGeometry relative="1" as="geometry">
            <mxPoint x="180" y="80" as="sourcePoint" />
            <mxPoint x="350" y="70" as="targetPoint" />
          </mxGeometry>
        </mxCell>
        <mxCell id="1CZp4nAY6ycJ82pHpyfN-28" value="" style="endArrow=none;html=1;rounded=0;exitX=1;exitY=0.5;exitDx=0;exitDy=0;" edge="1" parent="1" source="1CZp4nAY6ycJ82pHpyfN-26">
          <mxGeometry relative="1" as="geometry">
            <mxPoint x="470" y="70" as="sourcePoint" />
            <mxPoint x="680" y="80" as="targetPoint" />
          </mxGeometry>
        </mxCell>
        <mxCell id="1CZp4nAY6ycJ82pHpyfN-29" value="" style="endArrow=none;html=1;rounded=0;exitX=0.5;exitY=0;exitDx=0;exitDy=0;" edge="1" parent="1" source="1CZp4nAY6ycJ82pHpyfN-1">
          <mxGeometry relative="1" as="geometry">
            <mxPoint x="150" y="150" as="sourcePoint" />
            <mxPoint x="180" y="80" as="targetPoint" />
          </mxGeometry>
        </mxCell>
        <mxCell id="1CZp4nAY6ycJ82pHpyfN-30" value="" style="endArrow=none;html=1;rounded=0;exitX=0.5;exitY=0;exitDx=0;exitDy=0;" edge="1" parent="1">
          <mxGeometry relative="1" as="geometry">
            <mxPoint x="679.5" y="170" as="sourcePoint" />
            <mxPoint x="679.5" y="80" as="targetPoint" />
          </mxGeometry>
        </mxCell>
        <mxCell id="1CZp4nAY6ycJ82pHpyfN-32" value="" style="endArrow=none;html=1;rounded=0;exitX=1;exitY=0.5;exitDx=0;exitDy=0;entryX=0;entryY=0.5;entryDx=0;entryDy=0;" edge="1" parent="1" source="1CZp4nAY6ycJ82pHpyfN-42" target="1CZp4nAY6ycJ82pHpyfN-1">
          <mxGeometry width="50" height="50" relative="1" as="geometry">
            <mxPoint x="100" y="200" as="sourcePoint" />
            <mxPoint x="410" y="310" as="targetPoint" />
          </mxGeometry>
        </mxCell>
        <mxCell id="1CZp4nAY6ycJ82pHpyfN-37" value="" style="endArrow=none;html=1;rounded=0;exitX=0.5;exitY=0;exitDx=0;exitDy=0;entryX=0.5;entryY=0;entryDx=0;entryDy=0;" edge="1" parent="1" source="1CZp4nAY6ycJ82pHpyfN-5" target="1CZp4nAY6ycJ82pHpyfN-21">
          <mxGeometry width="50" height="50" relative="1" as="geometry">
            <mxPoint x="250" y="440" as="sourcePoint" />
            <mxPoint x="260" y="150" as="targetPoint" />
            <Array as="points">
              <mxPoint x="270" y="130" />
              <mxPoint x="410" y="130" />
            </Array>
          </mxGeometry>
        </mxCell>
        <mxCell id="1CZp4nAY6ycJ82pHpyfN-38" value="день" style="ellipse;whiteSpace=wrap;html=1;align=center;dashed=1;" vertex="1" parent="1">
          <mxGeometry x="510" y="500" width="100" height="40" as="geometry" />
        </mxCell>
        <mxCell id="1CZp4nAY6ycJ82pHpyfN-39" value="аудитория" style="ellipse;whiteSpace=wrap;html=1;align=center;dashed=1;" vertex="1" parent="1">
          <mxGeometry x="510" y="545" width="100" height="40" as="geometry" />
        </mxCell>
        <mxCell id="1CZp4nAY6ycJ82pHpyfN-40" value="описание" style="ellipse;whiteSpace=wrap;html=1;align=center;dashed=1;" vertex="1" parent="1">
          <mxGeometry x="520" y="320" width="100" height="40" as="geometry" />
        </mxCell>
        <mxCell id="1CZp4nAY6ycJ82pHpyfN-41" value="название" style="ellipse;whiteSpace=wrap;html=1;align=center;dashed=1;" vertex="1" parent="1">
          <mxGeometry x="520" y="360" width="100" height="40" as="geometry" />
        </mxCell>
        <mxCell id="1CZp4nAY6ycJ82pHpyfN-42" value="ФИО" style="ellipse;whiteSpace=wrap;html=1;align=center;dashed=1;" vertex="1" parent="1">
          <mxGeometry x="30" y="185" width="60" height="30" as="geometry" />
        </mxCell>
        <mxCell id="1CZp4nAY6ycJ82pHpyfN-43" value="дата посещения" style="ellipse;whiteSpace=wrap;html=1;align=center;dashed=1;" vertex="1" parent="1">
          <mxGeometry x="510" y="240" width="100" height="40" as="geometry" />
        </mxCell>
        <mxCell id="1CZp4nAY6ycJ82pHpyfN-44" value="" style="endArrow=none;html=1;rounded=0;exitX=1;exitY=0.5;exitDx=0;exitDy=0;entryX=0.5;entryY=0;entryDx=0;entryDy=0;" edge="1" parent="1" source="1CZp4nAY6ycJ82pHpyfN-21" target="1CZp4nAY6ycJ82pHpyfN-43">
          <mxGeometry relative="1" as="geometry">
            <mxPoint x="430" y="280" as="sourcePoint" />
            <mxPoint x="590" y="280" as="targetPoint" />
          </mxGeometry>
        </mxCell>
        <mxCell id="1CZp4nAY6ycJ82pHpyfN-45" value="ФИО" style="ellipse;whiteSpace=wrap;html=1;align=center;dashed=1;" vertex="1" parent="1">
          <mxGeometry x="780" y="185" width="70" height="30" as="geometry" />
        </mxCell>
        <mxCell id="1CZp4nAY6ycJ82pHpyfN-46" value="" style="endArrow=none;html=1;rounded=0;exitX=1;exitY=0.5;exitDx=0;exitDy=0;entryX=0;entryY=0.5;entryDx=0;entryDy=0;" edge="1" parent="1" source="1CZp4nAY6ycJ82pHpyfN-2" target="1CZp4nAY6ycJ82pHpyfN-45">
          <mxGeometry relative="1" as="geometry">
            <mxPoint x="667" y="280" as="sourcePoint" />
            <mxPoint x="827" y="280" as="targetPoint" />
          </mxGeometry>
        </mxCell>
        <mxCell id="1CZp4nAY6ycJ82pHpyfN-47" value="время" style="ellipse;whiteSpace=wrap;html=1;align=center;dashed=1;" vertex="1" parent="1">
          <mxGeometry x="510" y="590" width="100" height="40" as="geometry" />
        </mxCell>
        <mxCell id="1CZp4nAY6ycJ82pHpyfN-48" value="" style="endArrow=none;html=1;rounded=0;exitX=0;exitY=0.5;exitDx=0;exitDy=0;entryX=1;entryY=0.5;entryDx=0;entryDy=0;" edge="1" parent="1" source="1CZp4nAY6ycJ82pHpyfN-47" target="1CZp4nAY6ycJ82pHpyfN-9">
          <mxGeometry relative="1" as="geometry">
            <mxPoint x="360" y="370" as="sourcePoint" />
            <mxPoint x="520" y="370" as="targetPoint" />
          </mxGeometry>
        </mxCell>
      </root>
    </mxGraphModel>
  </diagram>
</mxfile>
